<?xml version="1.0"?>
<svg xmlns="http://www.w3.org/2000/svg" xmlns:xlink="http://www.w3.org/1999/xlink" version="1.1" id="Capa_1" x="0px" y="0px" viewBox="0 0 511.999 511.999" style="enable-background:new 0 0 511.999 511.999;" xml:space="preserve" width="512px" height="512px" class=""><g><path style="fill:#0067AB" d="M511.995,118.853c0-15.149-12.278-27.428-27.428-27.428v-36.57c15.149,0,27.428-12.278,27.428-27.428  S499.716,0,484.567,0c-15.149,0-27.428,12.278-27.428,27.428h-36.57C420.569,12.278,408.291,0,393.142,0  c-15.149,0-27.428,12.278-27.428,27.428h-36.57C329.144,12.278,316.865,0,301.716,0s-27.428,12.278-27.428,27.428h-36.57  C237.719,12.278,225.44,0,210.291,0s-27.428,12.278-27.428,27.428h-36.57C146.293,12.278,134.015,0,118.866,0  S91.438,12.278,91.438,27.428h-36.57C54.868,12.278,42.59,0,27.44,0S0.013,12.278,0.013,27.428S12.291,54.855,27.44,54.855v36.57  c-15.149,0-27.428,12.278-27.428,27.428S12.291,146.28,27.44,146.28v36.57c-15.149,0-27.428,12.278-27.428,27.428  s12.278,27.428,27.428,27.428v36.57c-15.149,0-27.428,12.278-27.428,27.428s12.278,27.428,27.428,27.428v36.57  c-15.149,0-27.428,12.278-27.428,27.428c0,15.149,12.278,27.428,27.428,27.428v36.57c-15.149,0-27.428,12.278-27.428,27.428  c0,15.149,12.278,27.428,27.428,27.428s27.428-12.278,27.428-27.428h36.57c0,15.149,12.278,27.428,27.428,27.428  s27.428-12.278,27.428-27.428h36.57c0,15.149,12.278,27.428,27.428,27.428s27.428-12.278,27.428-27.428h36.57  c0,15.149,12.278,27.428,27.428,27.428s27.428-12.278,27.428-27.428h36.57c0,15.149,12.278,27.428,27.428,27.428  c15.149,0,27.428-12.278,27.428-27.428h36.57c0,15.149,12.278,27.428,27.428,27.428c15.149,0,27.428-12.278,27.428-27.428  c0-15.149-12.278-27.428-27.428-27.428v-36.57c15.149,0,27.428-12.278,27.428-27.428c0-15.149-12.278-27.428-27.428-27.428v-36.57  c15.149,0,27.428-12.278,27.428-27.428c0-15.149-12.278-27.428-27.428-27.428v-36.57c15.149,0,27.428-12.278,27.428-27.428  s-12.278-27.428-27.428-27.428v-36.57C499.716,146.28,511.995,134.002,511.995,118.853z" data-original="#91CECE" class="" data-old_color="#91CECE"/><rect x="82.286" y="82.283" style="fill:#041041" width="347.416" height="347.416" data-original="#EA3836" class="" data-old_color="#EA3836"/><path style="fill:#FFD33F;" d="M274.289,237.706l-36.57-54.855l-45.713-27.428l-18.285,54.855l-18.285,27.428l18.285,9.143v18.285  c-5.047,15.149,3.136,31.514,18.276,36.57c0,0,0,0,0.009,0l45.713-9.143l9.143,45.713l-68.084,34.358  c-2.862,1.902-3.639,5.76-1.737,8.621c1.015,1.527,2.651,2.533,4.48,2.734l0,0c43.299,6.061,87.256,5.486,130.382-1.701l44.67-7.442  l-36.57-45.713l-9.143-54.855l-9.143-9.143L274.289,237.706z" data-original="#FFD33F" class=""/><polygon style="fill:#465479" points="356.572,292.561 365.714,274.276 356.572,237.706 347.429,191.993 320.001,155.423   274.289,127.995 228.576,118.853 192.006,127.995 182.863,137.138 192.006,155.423 237.719,182.851 274.289,237.706   301.716,265.133 310.859,274.276 329.144,292.561 " data-original="#383856" class="" data-old_color="#383856"/><path style="fill:#0067AB" d="M511.995,210.278c-0.018-7.908-3.474-15.423-9.472-20.58c-21.165,33.069-45.557,63.97-72.811,92.23  v147.771H201.633c-64.089,24.054-131.25,38.965-199.499,44.286c-5.842,13.979,0.75,30.042,14.729,35.884s30.042-0.75,35.884-14.729  c1.399-3.355,2.121-6.948,2.121-10.587h36.57c0,15.149,12.278,27.428,27.428,27.428s27.428-12.278,27.428-27.428h36.57  c0,15.149,12.278,27.428,27.428,27.428s27.428-12.278,27.428-27.428h36.57c0,15.149,12.278,27.428,27.428,27.428  c15.149,0,27.428-12.278,27.428-27.428h36.57c0,15.149,12.278,27.428,27.428,27.428c15.149,0,27.428-12.278,27.428-27.428h36.57  c0,15.149,12.278,27.428,27.428,27.428c15.149,0,27.428-12.278,27.428-27.428c0-15.149-12.278-27.428-27.428-27.428v-36.57  c15.149,0,27.428-12.278,27.428-27.428c0-15.149-12.278-27.428-27.428-27.428v-36.57c15.149,0,27.428-12.278,27.428-27.428  c0-15.149-12.278-27.428-27.428-27.428v-36.57C499.716,237.706,511.995,225.427,511.995,210.278z" data-original="#83B2B7" class="" data-old_color="#83B2B7"/><path style="fill:#041041" d="M341.889,356.495l14.683,18.349l-44.652,7.442c-4.681,0.777-9.389,1.445-14.089,2.075  c-30.792,17.673-62.965,32.831-96.198,45.338h228.079V281.928C402.942,309.594,373.531,334.571,341.889,356.495z" data-original="#D62121" class="active-path" data-old_color="#D62121"/><path style="fill:#FFAC3E" d="M356.572,374.844l-14.683-18.349c-14.628,10.13-29.32,19.382-44.058,27.866  c4.699-0.631,9.408-1.298,14.089-2.075L356.572,374.844z" data-original="#FFAC3E" class=""/></g> </svg>
