<?xml version="1.0" encoding="utf-8"?>
<!-- Generator: Adobe Illustrator 21.0.1, SVG Export Plug-In . SVG Version: 6.00 Build 0)  -->
<svg version="1.1" id="Capa_1" xmlns="http://www.w3.org/2000/svg" xmlns:xlink="http://www.w3.org/1999/xlink" x="0px" y="0px"
	 viewBox="0 0 512 512" style="enable-background:new 0 0 512 512;" xml:space="preserve">
<style type="text/css">
	.st0{fill:#0067AB;}
</style>
<g>
	<circle class="st0" cx="290.1" cy="273.1" r="153.6"/>
	<path d="M17.1,290.1c-9.4,0-17.1-7.6-17.1-17.1V34.1c0-9.4,7.6-17.1,17.1-17.1s17.1,7.6,17.1,17.1v238.9
		C34.1,282.5,26.5,290.1,17.1,290.1z"/>
	<path d="M85.3,221.9c-9.4,0-17.1-7.6-17.1-17.1V34.1c0-9.4,7.6-17.1,17.1-17.1s17.1,7.6,17.1,17.1v170.7
		C102.4,214.2,94.8,221.9,85.3,221.9z"/>
	<path d="M153.6,221.9c-9.4,0-17.1-7.6-17.1-17.1V34.1c0-9.4,7.6-17.1,17.1-17.1c9.4,0,17.1,7.6,17.1,17.1v170.7
		C170.7,214.2,163,221.9,153.6,221.9z"/>
	<path d="M221.9,172c-9.4,0-17.1-7.6-17.1-17.1V34.1c0-9.4,7.6-17.1,17.1-17.1c9.4,0,17.1,7.6,17.1,17.1V155
		C238.9,164.4,231.3,172,221.9,172z"/>
	<path d="M290.1,153.6c-9.4,0-17.1-7.6-17.1-17.1V34.1c0-9.4,7.6-17.1,17.1-17.1s17.1,7.6,17.1,17.1v102.4
		C307.2,146,299.5,153.6,290.1,153.6z"/>
	<path d="M494.9,290.1c-9.4,0-17.1-7.6-17.1-17.1V34.1c0-9.4,7.6-17.1,17.1-17.1S512,24.7,512,34.1v238.9
		C512,282.5,504.3,290.1,494.9,290.1z"/>
	<path d="M86,290.1c-9.4,0-17.1-7.6-17.1-17.1c0-9.3,7.4-16.9,16.7-17.1H86c9.4,0,17.1,7.6,17.1,17.1
		C103.1,282.5,95.4,290.1,86,290.1z"/>
	<path d="M358.4,172c-9.4,0-17.1-7.6-17.1-17.1V34.1c0-9.4,7.6-17.1,17.1-17.1s17.1,7.6,17.1,17.1V155
		C375.4,164.4,367.8,172,358.4,172z"/>
	<path d="M426.6,221.9c-9.4,0-17.1-7.6-17.1-17.1V34.1c0-9.4,7.6-17.1,17.1-17.1s17.1,7.6,17.1,17.1v170.7
		C443.7,214.2,436.1,221.9,426.6,221.9z"/>
	<path d="M427.3,290.1c-9.4,0-17.1-7.6-17.1-17.1c0-9.3,7.4-16.9,16.7-17.1h0.3c9.4,0,17.1,7.6,17.1,17.1
		C444.4,282.5,436.7,290.1,427.3,290.1z"/>
	<path d="M494.9,494.9c-4.5,0-8.9-1.8-12.1-5L374.7,381.7c-6.5-6.8-6.4-17.6,0.4-24.1c6.6-6.4,17.1-6.4,23.7,0L507,465.8
		c6.7,6.7,6.7,17.5,0,24.1C503.8,493.1,499.4,494.9,494.9,494.9z"/>
	<path d="M290.1,426.7c-84.8,0-153.6-68.8-153.6-153.6s68.8-153.6,153.6-153.6s153.6,68.8,153.6,153.6
		C443.6,357.9,374.9,426.6,290.1,426.7z M290.1,153.6c-66,0-119.5,53.5-119.5,119.5s53.5,119.5,119.5,119.5S409.6,339,409.6,273.1
		S356.1,153.6,290.1,153.6z"/>
</g>
</svg>
